Coordinates
version=1
nRows=43
nColumns=12
inDegrees=yes

Units are S.I. units (second, meters, Newtons, ...)
Angles are in degrees

endheader
time	SC_y	SC_z	SC_x	AC_y	AC_z	AC_x	GH_y	GH_z	GH_yy	EL_x	PS_y
       0.0               -19.1          12.54          9.969          69.71          8.049         -18.15         -88.96          33.42          149.5          64.86          111.5
   0.04856               -19.1          12.54          9.971          69.71          8.047         -18.15         -88.97          33.41          149.4          64.86          111.5
   0.09712               -19.1          12.54          9.973          69.71          8.046         -18.15         -88.98          33.41          149.4          64.85          111.5
    0.1457               -19.1          12.54          9.975          69.71          8.044         -18.15          -89.0           33.4          149.4          64.85          111.6
    0.1942               -19.1          12.54          9.978          69.71          8.042         -18.15         -89.01          33.39          149.3          64.84          111.6
    0.2428               -19.1          12.54           9.98          69.71          8.041         -18.15         -89.03          33.38          149.3          64.84          111.6
    0.2914              -19.09          12.54          9.983          69.71          8.039         -18.15         -89.05          33.37          149.2          64.83          111.6
    0.3399              -19.09          12.54          9.985          69.71          8.037         -18.15         -89.06          33.36          149.2          64.83          111.6
    0.3885              -19.09          12.54          9.988          69.71          8.034         -18.15         -89.08          33.34          149.1          64.82          111.6
    0.4371              -19.09          12.54          9.991          69.71          8.032         -18.15          -89.1          33.33          149.1          64.82          111.6
    0.4856              -19.09          12.54          9.995          69.71          8.029         -18.15         -89.12          33.32          149.0          64.81          111.6
    0.5342              -19.09          12.54          9.998          69.71          8.027         -18.15         -89.15           33.3          149.0           64.8          111.6
    0.5827              -19.09          12.54           10.0          69.71          8.024         -18.15         -89.17          33.29          148.9          64.79          111.6
    0.6313              -19.09          12.54          10.01          69.71           8.02         -18.15          -89.2          33.27          148.8          64.79          111.6
    0.6799              -19.09          12.54          10.01          69.71          8.017         -18.15         -89.23          33.25          148.7          64.78          111.6
    0.7284              -19.09          12.54          10.02          69.71          8.013         -18.15         -89.26          33.23          148.6          64.77          111.6
     0.777              -19.09          12.54          10.02          69.71          8.009         -18.15          -89.3          33.21          148.5          64.75          111.6
    0.8256              -19.08          12.54          10.03          69.71          8.004         -18.15         -89.33          33.18          148.4          64.74          111.6
    0.8741              -19.08          12.54          10.03          69.71            8.0         -18.15         -89.38          33.16          148.3          64.73          111.6
    0.9227              -19.08          12.54          10.04          69.71          7.994         -18.15         -89.42          33.13          148.2          64.71          111.6
    0.9712              -19.08          12.53          10.05           69.7          7.988         -18.15         -89.47           33.1          148.1           64.7          111.6
      1.02              -19.08          12.53          10.06           69.7          7.982         -18.15         -89.53          33.06          147.9          64.68          111.6
     1.068              -19.07          12.53          10.07           69.7          7.975         -18.15         -89.59          33.02          147.8          64.66          111.6
     1.117              -19.07          12.53          10.08           69.7          7.967         -18.15         -89.65          32.98          147.6          64.64          111.6
     1.165              -19.07          12.53          10.09           69.7          7.958         -18.15         -89.73          32.93          147.4          64.62          111.6
     1.214              -19.07          12.53           10.1           69.7          7.948         -18.15         -89.81          32.88          147.1          64.59          111.6
     1.263              -19.06          12.53          10.12           69.7          7.937         -18.15         -89.91          32.82          146.9          64.56          111.6
     1.311              -19.06          12.52          10.13          69.69          7.925         -18.15         -90.01          32.76          146.6          64.53          111.6
      1.36              -19.05          12.52          10.15          69.69          7.911         -18.15         -90.13          32.68          146.3          64.49          111.6
     1.408              -19.05          12.52          10.17          69.69          7.895         -18.15         -90.26           32.6          145.9          64.45          111.6
     1.457              -19.04          12.52           10.2          69.68          7.876         -18.15         -90.42           32.5          145.5           64.4          111.6
     1.505              -19.04          12.51          10.22          69.68          7.856         -18.15          -90.6          32.39          145.0          64.34          111.6
     1.554              -19.03          12.51          10.25          69.68          7.832         -18.15          -90.8          32.26          144.5          64.28          111.6
     1.603              -19.02          12.51          10.29          69.67          7.804         -18.15         -91.04          32.11          143.8           64.2          111.6
     1.651              -19.01           12.5          10.33          69.67          7.771         -18.15         -91.31          31.93          143.1          64.11          111.6
       1.7               -19.0          12.49          10.38          69.66          7.732         -18.15         -91.64          31.73          142.2          64.01          111.6
     1.748              -18.98          12.49          10.44          69.65          7.686         -18.15         -92.03          31.48          141.1          63.88          111.6
     1.797              -18.97          12.48          10.52          69.64          7.631         -18.15         -92.49          31.19          139.8          63.74          111.7
     1.845              -18.95          12.47           10.6          69.63          7.565         -18.15         -93.06          30.83          138.3          63.56          111.7
     1.894              -18.92          12.46          10.71          69.61          7.484         -18.15         -93.75          30.39          136.4          63.34          111.7
     1.942              -18.89          12.44          10.84           69.6          7.383         -18.15          -94.6          29.86          134.1          63.07          111.7
     1.991              -18.85          12.42           11.0          69.58          7.258         -18.15         -95.65          29.19          131.2          62.73          111.8
      2.04               -18.8          12.39          11.21          69.55          7.101         -18.15         -96.99          28.34          127.6           62.3          111.8
